<?xml version="1.0" encoding="UTF-8" standalone="no"?>
<!DOCTYPE svg PUBLIC "-//W3C//DTD SVG 1.1//EN" "http://www.w3.org/Graphics/SVG/1.1/DTD/svg11.dtd">
<svg width="100%" height="100%" viewBox="0 0 150 137" version="1.1" xmlns="http://www.w3.org/2000/svg" xmlns:xlink="http://www.w3.org/1999/xlink" xml:space="preserve" xmlns:serif="http://www.serif.com/" style="fill-rule:evenodd;clip-rule:evenodd;stroke-linejoin:round;stroke-miterlimit:2;">
    <g transform="matrix(1,0,0,1,1.11022e-16,-0.714295)">
        <g transform="matrix(0.999099,0,0,1,0.000894226,0)">
            <g transform="matrix(1,0,0,1,-0.993038,-0.00133802)">
                <path d="M0.992,15.687C8.671,10.695 16.36,5.729 24.021,0.716C24.007,36.15 24.046,71.588 24.003,107.023C20.994,109.027 17.931,110.948 14.926,112.959C11.05,115.371 7.225,117.868 3.432,120.412C2.685,120.935 1.88,121.364 1.039,121.715C1.003,86.373 1.089,51.028 0.992,15.687Z" style="fill-rule:nonzero;"/>
            </g>
        </g>
        <g transform="matrix(1,0,0,1,3,0)">
            <path d="M24.021,0.716C57.899,0.719 91.781,0.708 125.659,0.719C129.194,0.766 132.601,3.55 132.891,7.16C133.027,13.508 132.801,19.866 133.001,26.217C133.077,50.517 133.012,74.816 133.034,99.115C132.984,101.774 133.159,104.436 132.944,107.091C121.598,107.205 110.244,107.105 98.894,107.137C75.278,107.137 51.663,107.137 28.047,107.141C26.698,107.163 25.345,107.17 24.003,107.023C24.046,71.588 24.007,36.15 24.021,0.716M70.562,22.818C68.312,29.323 66.516,35.982 64.422,42.537C60.515,55.329 56.604,68.121 52.693,80.913C52.332,81.933 52.028,82.978 51.852,84.048C55.552,84.105 59.259,84.133 62.959,84.037C64.379,79.117 65.821,74.204 67.192,69.27C67.328,68.833 67.503,68.415 67.675,67.996C74.692,68.014 81.712,67.903 88.729,68.053C90.414,73.395 92.017,78.766 93.806,84.073C97.588,84.094 101.374,84.119 105.156,84.051C102.913,76.526 100.358,69.098 98.025,61.602C93.817,48.692 89.763,35.732 85.53,22.832C80.546,22.711 75.547,22.736 70.562,22.818Z" style="fill-rule:nonzero;"/>
        </g>
        <g transform="matrix(1,0,0,1,3,0)">
            <path d="M77.901,30.772C78.624,32.5 78.91,34.368 79.494,36.143C81.633,43.761 83.898,51.35 85.949,58.997C80.689,59.068 75.422,59.072 70.158,58.997C72.584,49.55 75.422,40.208 77.901,30.772Z" style="fill-rule:nonzero;"/>
        </g>
        <g transform="matrix(1,0,0,1,3,0)">
            <path d="M70.562,22.818C75.547,22.736 80.546,22.711 85.53,22.832C89.763,35.732 93.817,48.692 98.025,61.602C100.358,69.098 102.913,76.526 105.156,84.051C101.374,84.119 97.588,84.094 93.806,84.073C92.017,78.766 90.414,73.395 88.729,68.053C81.712,67.903 74.692,68.014 67.675,67.996C67.503,68.415 67.328,68.833 67.192,69.27C65.821,74.204 64.379,79.117 62.959,84.037C59.259,84.133 55.552,84.105 51.852,84.048C52.028,82.978 52.332,81.933 52.693,80.913C56.604,68.121 60.515,55.329 64.422,42.537C66.516,35.982 68.312,29.323 70.562,22.818M77.901,30.772C75.422,40.208 72.584,49.55 70.158,58.997C75.422,59.072 80.689,59.068 85.949,58.997C83.898,51.35 81.633,43.761 79.494,36.143C78.91,34.368 78.624,32.5 77.901,30.772Z" style="fill:white;fill-rule:nonzero;"/>
        </g>
        <g transform="matrix(1,0,0,1,4.96284,4.90406)">
            <path d="M26.022,107.145L28.047,107.141C51.663,107.137 75.278,107.137 98.894,107.137C110.244,107.105 123.556,107.205 134.902,107.091C135.117,104.436 134.942,101.774 134.992,99.115C134.97,74.816 135.035,50.517 134.96,26.217L137.234,26.033C139.515,25.932 141.809,26.049 144.087,26.092C144.241,34.089 144.109,42.094 144.152,50.094C144.152,75.617 144.155,101.144 144.152,126.667C144.134,128.567 144.22,130.467 144.091,132.367C104.72,132.432 58.392,132.364 19.021,132.399C16.685,132.392 14.119,132.177 12.305,130.535C10.945,129.258 9.89,127.497 9.933,125.579C9.922,121.371 9.929,117.167 9.926,112.959C12.931,110.948 15.994,109.027 19.003,107.023C19.674,107.096 25.348,107.131 26.022,107.145Z"/>
        </g>
    </g>
</svg>
