<?xml version="1.0" encoding="utf-8"?>
<!-- Generator: Adobe Illustrator 25.0.1, SVG Export Plug-In . SVG Version: 6.00 Build 0)  -->
<svg version="1.0" id="katman_1" xmlns="http://www.w3.org/2000/svg" xmlns:xlink="http://www.w3.org/1999/xlink" x="0px" y="0px"
	 viewBox="0 0 800 600" style="enable-background:new 0 0 800 600;" xml:space="preserve">
<style type="text/css">
	.st0{fill:#FDB71B;}
	.st1{fill:#EE2E23;}
	.st2{fill:#008DCF;}
	.st3{fill:#484C57;}
</style>
<circle class="st0" cx="637.3" cy="318.6" r="30.6"/>
<circle class="st1" cx="570.4" cy="318.6" r="30.6"/>
<circle class="st2" cx="704.1" cy="318.6" r="30.6"/>
<g>
	<path class="st3" d="M121.6,287.5h-20V347H79.5v-59.6h-8.3v-18.9h8.3v-25.1c0-7.1,1.3-13.2,3.8-18.3c2.6-5,6.1-8.9,10.7-11.7
		c4.6-2.8,9.9-4.2,16-4.2c4.4,0,8.2,0.9,11.5,2.6v20c-3.6-1.9-6.9-2.9-9.9-2.9c-3.5,0-6.1,1.4-7.7,4.2c-1.6,2.8-2.4,7.3-2.4,13.4
		v21.9h20V287.5z"/>
	<path class="st3" d="M131.7,347v-78.4h22.1v11.8c5.4-9.6,13-14.4,22.7-14.4c3.1,0,6.3,0.6,9.6,1.9l-3,20.7
		c-3.4-1.8-6.9-2.7-10.6-2.7c-12.5,0-18.7,7.8-18.7,23.5V347H131.7z"/>
	<path class="st3" d="M256.7,278.7v-10.1h22.1V347h-22.1v-10.2c-6.7,8.4-15.3,12.6-25.6,12.6c-5.3,0-10.4-1.1-15.1-3.2
		c-4.8-2.1-8.9-5.1-12.4-8.9c-3.5-3.8-6.2-8.2-8.2-13.4s-2.9-10.6-2.9-16.3c0-4.2,0.6-8.6,1.9-13.3c1.3-4.7,3.7-9.4,7.2-14.1
		c3.5-4.7,7.9-8.2,13.2-10.6c5.3-2.4,10.5-3.6,15.8-3.6C240.8,266,249.5,270.2,256.7,278.7z M259.1,308c0-6-2.2-11.2-6.6-15.5
		c-4.4-4.4-9.5-6.6-15.4-6.6c-6.1,0-11.3,2.2-15.5,6.5c-4.3,4.3-6.4,9.5-6.4,15.4c0,6,2.1,11.1,6.4,15.4c4.3,4.3,9.4,6.5,15.5,6.5
		c5.8,0,10.9-2.2,15.3-6.6C256.9,318.8,259.1,313.7,259.1,308z"/>
	<path class="st3" d="M358.6,270.8v21.6c-3-2.2-6-3.9-9-5c-3-1.1-6-1.6-8.9-1.6c-4.6,0-8.6,1.1-12.1,3.3c-3.5,2.2-6.1,4.9-7.8,8.1
		c-1.7,3.2-2.6,6.7-2.6,10.6c0,3.1,0.7,6.3,2.1,9.7c1.4,3.4,4,6.2,7.8,8.6c3.8,2.4,8,3.6,12.6,3.6c3,0,6.1-0.6,9.2-1.8
		c3.1-1.2,6.1-2.8,8.7-4.8v21.6c-6.8,3.1-13.6,4.6-20.2,4.6c-6,0-11.6-1-16.9-3.1c-5.3-2.1-9.9-5-13.8-8.8c-3.9-3.8-6.9-8.2-9-13.3
		c-2.1-5.1-3.2-10.4-3.2-16.1c0-5.8,1.1-11.2,3.3-16.4c2.2-5.2,5.2-9.7,9.1-13.5c3.9-3.8,8.5-6.8,13.8-9c5.3-2.1,11-3.2,17-3.2
		C345.8,266,352.5,267.6,358.6,270.8z"/>
	<path class="st3" d="M375.4,287.5h-8.6v-18.9h8.6v-26.7h22.1v26.7h15.4v18.9h-15.4v23.4c0,6.6,0.7,11.5,2,14.6
		c1.3,3.1,3.9,4.6,7.6,4.6l4-0.3v19.2c-2.3,0.3-5.4,0.5-9.3,0.5c-8.3,0-14.8-2.8-19.5-8.4c-4.6-5.6-7-13-7-22.3V287.5z"/>
	<path class="st3" d="M486.8,278.7v-10.1h22.1V347h-22.1v-10.2c-6.7,8.4-15.3,12.6-25.6,12.6c-5.3,0-10.4-1.1-15.1-3.2
		c-4.8-2.1-8.9-5.1-12.4-8.9c-3.5-3.8-6.2-8.2-8.2-13.4c-1.9-5.1-2.9-10.6-2.9-16.3c0-4.2,0.6-8.6,1.9-13.3
		c1.3-4.7,3.7-9.4,7.2-14.1c3.5-4.7,7.9-8.2,13.2-10.6c5.3-2.4,10.5-3.6,15.8-3.6C470.8,266,479.5,270.2,486.8,278.7z M489.2,308
		c0-6-2.2-11.2-6.6-15.5c-4.4-4.4-9.5-6.6-15.4-6.6c-6.1,0-11.3,2.2-15.5,6.5c-4.3,4.3-6.4,9.5-6.4,15.4c0,6,2.1,11.1,6.4,15.4
		c4.3,4.3,9.4,6.5,15.5,6.5c5.8,0,10.9-2.2,15.3-6.6C487,318.8,489.2,313.7,489.2,308z"/>
	<path class="st3" d="M528.4,211.3h22.1v99.6c0,4.7,0.4,8.5,1.2,11.5c0.8,3,2,5,3.7,6.1c1.7,1.1,3.4,1.6,5.4,1.6l3-0.3v19.2
		c-2.3,0.3-4.8,0.5-7.4,0.5c-5.9,0-10.8-1.2-14.9-3.6c-4.1-2.4-7.3-5.9-9.6-10.6c-2.3-4.7-3.5-10.5-3.5-17.5V211.3z"/>
</g>
<g>
	<path d="M370.1,615.6h2.4v10.2h3.8v2.1h-6.2V615.6z"/>
	<path d="M377.2,623.8c0-0.6,0.1-1.1,0.3-1.7c0.2-0.5,0.5-1,1-1.3c0.4-0.4,0.9-0.7,1.5-0.9c0.6-0.2,1.2-0.3,1.8-0.3
		c0.6,0,1.2,0.1,1.8,0.3c0.6,0.2,1,0.5,1.5,0.9s0.7,0.8,1,1.4c0.2,0.5,0.3,1.1,0.3,1.7c0,0.6-0.1,1.2-0.3,1.7c-0.2,0.5-0.5,1-1,1.4
		s-0.9,0.7-1.5,0.9c-0.6,0.2-1.2,0.3-1.8,0.3c-0.7,0-1.3-0.1-1.8-0.3c-0.6-0.2-1-0.5-1.4-0.9c-0.4-0.4-0.7-0.8-0.9-1.4
		C377.3,625,377.2,624.4,377.2,623.8z M379.5,623.8c0,0.6,0.2,1.2,0.7,1.6s1,0.7,1.6,0.7c0.6,0,1.1-0.2,1.6-0.7
		c0.4-0.4,0.7-1,0.7-1.6c0-0.6-0.2-1.1-0.7-1.6c-0.5-0.4-1-0.7-1.6-0.7c-0.3,0-0.6,0.1-1,0.2c-0.3,0.2-0.6,0.4-0.9,0.8
		C379.6,623,379.5,623.4,379.5,623.8z"/>
	<path d="M394.1,619.9h2.2v7.7c0,0.9-0.1,1.6-0.2,2.1c-0.1,0.3-0.2,0.6-0.4,0.8s-0.5,0.6-0.8,0.8c-0.3,0.2-0.7,0.5-1.2,0.6
		s-1,0.3-1.6,0.3c-0.7,0-1.4-0.1-2-0.4c-0.7-0.3-1.2-0.7-1.6-1.2s-0.6-1.1-0.7-1.7h2.4c0.2,1,0.9,1.4,1.9,1.4c0.7,0,1.1-0.2,1.5-0.6
		s0.5-0.9,0.5-1.7v-1.2c-0.8,0.9-1.7,1.3-2.7,1.3c-0.3,0-0.6,0-0.9-0.1s-0.6-0.2-1-0.4s-0.6-0.4-0.9-0.8c-0.3-0.3-0.5-0.7-0.7-1.3
		c-0.2-0.5-0.3-1.1-0.3-1.6c0-0.6,0.1-1.2,0.3-1.7c0.2-0.5,0.5-1,0.8-1.4s0.8-0.7,1.3-0.9s1-0.3,1.6-0.3c1,0,1.9,0.4,2.6,1.3V619.9z
		 M394.3,623.9c0-0.6-0.2-1.1-0.7-1.6c-0.4-0.4-1-0.7-1.6-0.7c-0.3,0-0.6,0.1-1,0.2c-0.3,0.2-0.6,0.4-0.9,0.8
		c-0.2,0.4-0.4,0.8-0.4,1.2c0,0.6,0.2,1.1,0.7,1.6c0.4,0.4,1,0.7,1.6,0.7c0.6,0,1.1-0.2,1.6-0.7C394.1,625,394.3,624.5,394.3,623.9z
		"/>
	<path d="M398,623.8c0-0.6,0.1-1.1,0.3-1.7c0.2-0.5,0.5-1,1-1.3c0.4-0.4,0.9-0.7,1.5-0.9c0.6-0.2,1.2-0.3,1.8-0.3s1.2,0.1,1.8,0.3
		c0.6,0.2,1,0.5,1.5,0.9s0.7,0.8,1,1.4c0.2,0.5,0.3,1.1,0.3,1.7c0,0.6-0.1,1.2-0.3,1.7c-0.2,0.5-0.5,1-1,1.4s-0.9,0.7-1.5,0.9
		c-0.6,0.2-1.2,0.3-1.8,0.3c-0.7,0-1.3-0.1-1.8-0.3c-0.6-0.2-1-0.5-1.4-0.9c-0.4-0.4-0.7-0.8-0.9-1.4C398.1,625,398,624.4,398,623.8
		z M400.3,623.8c0,0.6,0.2,1.2,0.7,1.6s1,0.7,1.6,0.7c0.6,0,1.1-0.2,1.6-0.7c0.5-0.4,0.7-1,0.7-1.6c0-0.6-0.2-1.1-0.7-1.6
		s-1-0.7-1.6-0.7c-0.3,0-0.6,0.1-1,0.2c-0.3,0.2-0.6,0.4-0.9,0.8C400.4,623,400.3,623.4,400.3,623.8z"/>
	<path d="M407.4,619.9h2.5l2.1,4.6l2.2-4.8h1l2.2,4.9l2.1-4.7h2.5l-4.1,8.1h-1l-2.1-4.8l-2.1,4.8h-1L407.4,619.9z"/>
	<path d="M422.7,616.5c0-0.4,0.1-0.7,0.4-0.9s0.6-0.4,0.9-0.4c0.4,0,0.7,0.1,0.9,0.4s0.4,0.6,0.4,0.9c0,0.4-0.1,0.7-0.4,0.9
		s-0.6,0.4-0.9,0.4c-0.4,0-0.7-0.1-0.9-0.4S422.7,616.9,422.7,616.5z M422.9,619.9h2.2v8h-2.2V619.9z"/>
	<path d="M427.3,614h2.2v8.7l3-2.9h3l-3.7,3.5l4,4.5h-3.1l-3-3.4l-0.2,0.2v3.2h-2.2V614z"/>
	<path d="M437,626.6c0-0.4,0.1-0.7,0.4-1c0.3-0.3,0.6-0.4,1-0.4c0.4,0,0.7,0.1,1,0.4c0.3,0.3,0.4,0.6,0.4,1c0,0.4-0.1,0.7-0.4,1
		s-0.6,0.4-1,0.4c-0.4,0-0.7-0.1-1-0.4C437.1,627.4,437,627,437,626.6z"/>
	<path d="M448,620.1v2.2c-0.3-0.2-0.6-0.4-0.9-0.5s-0.6-0.2-0.9-0.2c-0.5,0-0.9,0.1-1.2,0.3c-0.4,0.2-0.6,0.5-0.8,0.8
		c-0.2,0.3-0.3,0.7-0.3,1.1c0,0.3,0.1,0.6,0.2,1c0.1,0.3,0.4,0.6,0.8,0.9c0.4,0.2,0.8,0.4,1.3,0.4c0.3,0,0.6-0.1,0.9-0.2
		c0.3-0.1,0.6-0.3,0.9-0.5v2.2c-0.7,0.3-1.4,0.5-2,0.5c-0.6,0-1.2-0.1-1.7-0.3c-0.5-0.2-1-0.5-1.4-0.9s-0.7-0.8-0.9-1.3
		s-0.3-1.1-0.3-1.6c0-0.6,0.1-1.1,0.3-1.7c0.2-0.5,0.5-1,0.9-1.4c0.4-0.4,0.9-0.7,1.4-0.9c0.5-0.2,1.1-0.3,1.7-0.3
		C446.7,619.6,447.4,619.8,448,620.1z"/>
	<path d="M449.3,623.8c0-0.6,0.1-1.1,0.3-1.7c0.2-0.5,0.5-1,1-1.3s0.9-0.7,1.5-0.9c0.6-0.2,1.2-0.3,1.8-0.3c0.6,0,1.2,0.1,1.8,0.3
		c0.6,0.2,1,0.5,1.5,0.9s0.7,0.8,1,1.4c0.2,0.5,0.3,1.1,0.3,1.7c0,0.6-0.1,1.2-0.3,1.7c-0.2,0.5-0.5,1-1,1.4s-0.9,0.7-1.5,0.9
		c-0.6,0.2-1.2,0.3-1.8,0.3c-0.7,0-1.3-0.1-1.8-0.3c-0.6-0.2-1-0.5-1.4-0.9c-0.4-0.4-0.7-0.8-0.9-1.4
		C449.4,625,449.3,624.4,449.3,623.8z M451.6,623.8c0,0.6,0.2,1.2,0.7,1.6s1,0.7,1.6,0.7c0.6,0,1.1-0.2,1.6-0.7
		c0.4-0.4,0.7-1,0.7-1.6c0-0.6-0.2-1.1-0.7-1.6c-0.5-0.4-1-0.7-1.6-0.7c-0.3,0-0.6,0.1-1,0.2s-0.6,0.4-0.9,0.8
		S451.6,623.4,451.6,623.8z"/>
	<path d="M460.1,627.8v-8h2.2v0.9c0.7-0.8,1.5-1.2,2.4-1.2c1.1,0,1.9,0.5,2.5,1.4c0.6-1,1.5-1.4,2.6-1.4c0.8,0,1.5,0.3,1.9,0.8
		s0.7,1.3,0.7,2.3v5.2h-2.2v-4.4c0-1.3-0.4-2-1.3-2c-0.5,0-0.9,0.2-1.1,0.6c-0.3,0.4-0.4,0.9-0.4,1.7v4.1h-2.2v-4.4
		c0-1.3-0.5-2-1.3-2c-0.5,0-0.9,0.2-1.1,0.6c-0.3,0.4-0.4,0.9-0.4,1.7v4.1H460.1z"/>
</g>
</svg>
