<?xml version="1.0" encoding="UTF-8" standalone="no"?>
<!DOCTYPE svg PUBLIC "-//W3C//DTD SVG 1.1//EN" "http://www.w3.org/Graphics/SVG/1.1/DTD/svg11.dtd">
<svg width="100%" height="100%" viewBox="0 0 186 186" version="1.1" xmlns="http://www.w3.org/2000/svg" xmlns:xlink="http://www.w3.org/1999/xlink" xml:space="preserve" xmlns:serif="http://www.serif.com/" style="fill-rule:evenodd;clip-rule:evenodd;stroke-linejoin:round;stroke-miterlimit:2;">
    <g transform="matrix(1,0,0,1,17.6052,18.3152)">
        <path d="M125.651,24.509C127.218,24.703 128.404,28.542 125.141,28.129C115.384,26.896 104.829,25.842 96.1,30.37L91.1,33.03L93.37,27.88C94.266,25.944 95.561,24.22 97.17,22.82C98.688,21.482 100.367,20.339 102.17,19.42C103.927,18.506 105.769,17.766 107.67,17.21C109.621,16.631 111.636,16.295 113.67,16.21L113,20.12C108.541,18.4 103.775,17.614 99,17.81C94.215,18.007 89.503,19.06 85.09,20.92C76.165,24.612 68.689,31.125 63.81,39.46L63,40.79L61.49,40.52C59.62,40.19 57.99,39.73 56.41,39.45C55.002,39.13 53.547,39.079 52.12,39.3C51.55,39.406 51.006,39.624 50.52,39.94C50.02,40.269 49.583,40.686 49.23,41.17C48.432,42.318 47.889,43.624 47.64,45C47.64,45.28 47.46,45.84 47.36,46.29L47,47.65C46.722,48.573 46.388,49.478 46,50.36L45.38,51.67C45.16,52.11 44.88,52.51 44.63,52.92C44.139,53.738 43.594,54.523 43,55.27C40.496,58.088 37.453,60.377 34.05,62C30.799,63.573 27.394,64.806 23.89,65.68L22.64,65.98L22.03,66.13L21.59,66.28C20.901,66.527 20.232,66.828 19.59,67.18C18.326,67.872 17.193,68.779 16.24,69.86C15.796,70.382 15.408,70.948 15.08,71.55C14.923,71.83 14.786,72.121 14.67,72.42C14.54,72.75 14.42,73.13 14.3,73.5C13.828,74.973 13.512,76.491 13.36,78.03C13.019,80.889 13.766,83.775 15.45,86.11L11,87.23C11.32,84.704 12.089,82.255 13.27,80C13.969,78.75 14.895,77.641 16,76.73C17.24,75.711 18.746,75.069 20.34,74.88L24.21,74.45L23.05,78.2C22.851,78.806 22.766,79.443 22.8,80.08C22.833,80.563 23.014,81.024 23.32,81.4C24.301,82.353 25.564,82.964 26.92,83.14L24.32,87.25C23.552,86.228 22.997,85.061 22.69,83.82C22.394,82.617 22.31,81.372 22.44,80.14C22.706,77.751 23.677,75.495 25.23,73.66L28.23,70.12L29.76,74.52C30.136,75.622 30.833,76.586 31.76,77.29C32.571,77.894 33.588,78.156 34.59,78.02L33.4,82.89C32.281,82.147 31.421,81.074 30.94,79.82C30.549,78.625 30.487,77.347 30.76,76.12C30.943,75.266 31.17,74.421 31.44,73.59C31.643,72.96 31.81,72.319 31.94,71.67L32.69,67.36L36.18,70C37.197,70.803 38.339,71.435 39.56,71.87C40.368,72.179 41.279,72.079 42,71.6C42.327,71.406 42.602,71.135 42.8,70.81C43.084,70.294 43.309,69.747 43.47,69.18C43.738,68.257 44.089,67.36 44.52,66.5C45.107,65.411 45.935,64.471 46.94,63.75L47.1,63.64L47.27,63.55C49.472,62.489 51.886,61.939 54.33,61.94C56.58,61.88 58.63,62.08 60.5,62.1L60.65,67.66L57.7,67.66C57.538,67.623 57.381,67.57 57.23,67.5L56.99,67.38C56.556,67.144 56.191,66.799 55.93,66.38C55.629,65.839 55.51,65.214 55.59,64.6C55.635,64.284 55.736,63.979 55.89,63.7C56.006,63.467 56.157,63.255 56.34,63.07C56.516,62.882 56.718,62.72 56.94,62.59C57.084,62.506 57.235,62.432 57.39,62.37L57.67,62.28C57.771,62.251 57.875,62.231 57.98,62.22L60.66,62.22L60.66,67.8C59.735,67.863 58.823,68.055 57.95,68.37C57.29,68.593 56.705,68.994 56.26,69.53C55.6,70.43 55.52,71.83 56.26,73.7C57,75.57 58.32,77.54 59.47,80.07C59.772,80.752 60.026,81.453 60.23,82.17C60.422,82.895 60.555,83.634 60.63,84.38C60.77,85.732 60.797,87.093 60.71,88.45C60.58,91.04 60.21,93.45 60.04,95.72C59.96,96.82 59.95,98.06 59.81,99.43C59.694,101.022 59.255,102.573 58.52,103.99C58.028,104.873 57.345,105.635 56.52,106.22C56.113,106.524 55.674,106.782 55.21,106.99L54.54,107.23C54.337,107.305 54.13,107.369 53.92,107.42C52.564,107.755 51.176,107.95 49.78,108C47.224,108.062 44.667,107.932 42.13,107.61L44.54,103.06C46.3,105.179 48.342,107.047 50.61,108.61C52.729,110.123 55.158,111.148 57.72,111.61L58.6,111.9C58.691,111.93 58.778,111.97 58.86,112.02C58.886,112.01 58.914,112.01 58.94,112.02C58.966,112.03 58.7,112.02 58.64,112.09C58.907,111.792 59.127,111.455 59.29,111.09C59.63,110.41 59.95,109.56 60.39,108.56L61.64,105.95C63.2,102.58 64.7,99.11 66.17,95.64C67.64,92.17 69.05,88.64 70.45,85.15L74.63,74.52L75.62,72L78,73C78.986,73.414 80.077,73.508 81.12,73.27C82.305,72.977 83.411,72.427 84.36,71.66C86.49,69.953 88.158,67.739 89.21,65.22C90.283,62.524 90.921,59.676 91.1,56.78C91.25,53.96 90.79,51.15 89.41,49.23L93.18,46.41C93.943,47.451 94.581,48.579 95.08,49.77C95.563,50.901 95.948,52.072 96.23,53.27C96.521,54.465 96.712,55.683 96.8,56.91C96.898,58.199 96.837,59.495 96.62,60.77L94.06,58.1C99.16,57.358 104.361,57.737 109.3,59.21C114.137,60.666 112.549,64.819 108.14,63.53C103.806,62.293 99.254,62.01 94.8,62.7L91.69,63.21L92.17,60C92.565,56.23 91.608,52.44 89.47,49.31L93.24,46.5C94.351,48.06 95.124,49.834 95.51,51.71C95.872,53.449 96.013,55.226 95.93,57C95.764,60.425 95.048,63.802 93.81,67C93.142,68.671 92.265,70.25 91.2,71.7C90.133,73.164 88.875,74.479 87.46,75.61C85.944,76.843 84.176,77.727 82.28,78.2C80.213,78.678 78.049,78.51 76.08,77.72L79.43,76.32L75.43,86.92C74,90.49 72.63,94 71.18,97.57C69.73,101.14 68.27,104.63 66.63,108.14L65.43,110.68C65.1,111.41 64.77,112.34 64.27,113.36C63.992,113.942 63.657,114.494 63.27,115.01C62.781,115.709 62.151,116.299 61.42,116.74C60.511,117.26 59.463,117.487 58.42,117.39C57.975,117.329 57.537,117.228 57.11,117.09C56.76,116.95 56.41,116.8 56.11,116.64L56.99,116.93C53.612,116.351 50.405,115.029 47.6,113.06C44.908,111.213 42.479,109.01 40.38,106.51L35.93,101.27L42.79,101.96C45.048,102.242 47.325,102.356 49.6,102.3C50.612,102.262 51.617,102.121 52.6,101.88C52.682,101.861 52.763,101.835 52.84,101.8C52.902,101.775 52.965,101.755 53.03,101.74C53.1,101.67 53.22,101.66 53.27,101.59C53.439,101.464 53.576,101.299 53.67,101.11C54.016,100.358 54.212,99.547 54.25,98.72C54.36,97.72 54.37,96.52 54.46,95.2C54.65,92.62 55,90.29 55.1,88.04C55.153,86.986 55.12,85.929 55,84.88C54.907,83.962 54.66,83.066 54.27,82.23C53.43,80.35 52.05,78.23 50.99,75.64C50.382,74.189 50.063,72.633 50.05,71.06C50.05,70.62 50.05,70.18 50.16,69.75C50.27,69.32 50.34,68.87 50.47,68.45C50.6,68.03 50.79,67.62 50.97,67.22C51.193,66.791 51.454,66.382 51.75,66C52.825,64.635 54.258,63.596 55.89,63C57.289,62.476 58.759,62.163 60.25,62.07L60.25,67.65L58.64,67.65L59,67.65L59.25,67.57C59.398,67.509 59.541,67.439 59.68,67.36C59.9,67.226 60.101,67.065 60.28,66.88C60.457,66.694 60.625,63.105 59.63,62.54C59.56,62.497 59.486,62.461 59.41,62.43C59.269,62.365 59.121,62.315 58.97,62.28L58.69,62.28L60.22,62.28L60.37,67.84C58.19,67.84 56.21,67.61 54.37,67.66C52.747,67.628 51.139,67.97 49.67,68.66L50,68.46C49.692,68.677 49.442,68.965 49.27,69.3C48.99,69.88 48.759,70.482 48.58,71.1C48.287,72.076 47.877,73.012 47.36,73.89C46.037,75.983 43.823,77.356 41.36,77.61C40.211,77.631 39.069,77.423 38,77C36.192,76.381 34.502,75.461 33,74.28L37.28,72.57C37.113,73.439 36.892,74.298 36.62,75.14C36.377,75.791 36.17,76.456 36,77.13C35.94,77.417 35.94,77.713 36,78C36.107,78.193 36.262,78.355 36.45,78.47L41.84,82.47L35.25,83.29C34.069,83.444 32.869,83.363 31.72,83.05C30.581,82.748 29.512,82.228 28.57,81.52C26.794,80.164 25.469,78.302 24.77,76.18L29.29,77.05C28.413,78.065 27.859,79.319 27.7,80.65C27.528,81.857 27.825,83.085 28.53,84.08L32.59,89.58L25.9,88.25C24.717,88.018 23.568,87.638 22.48,87.12C21.249,86.531 20.16,85.681 19.29,84.63C18.358,83.461 17.794,82.04 17.67,80.55C17.577,79.226 17.747,77.898 18.17,76.64L20.9,80C20.264,80.067 19.662,80.321 19.17,80.73C18.564,81.246 18.059,81.87 17.68,82.57C16.783,84.265 16.184,86.102 15.91,88L14.91,94L11.36,89C10.174,87.34 9.312,85.47 8.82,83.49C8.339,81.528 8.207,79.497 8.43,77.49C8.621,75.602 9.02,73.74 9.62,71.94C9.76,71.5 9.91,71.06 10.09,70.58C10.292,70.084 10.522,69.6 10.78,69.13C11.283,68.223 11.879,67.372 12.56,66.59C13.915,65.127 15.516,63.911 17.29,63C18.159,62.521 19.065,62.113 20,61.78L20.79,61.53L21.43,61.38L22.69,61.08C25.898,60.322 29.018,59.233 32,57.83C34.841,56.501 37.385,54.614 39.48,52.28C39.964,51.704 40.408,51.096 40.81,50.46C41,50.13 41.23,49.83 41.4,49.46L41.89,48.46C42.201,47.773 42.472,47.069 42.7,46.35L42.96,45.24C43.05,44.85 43.13,44.57 43.24,44.01C43.654,41.986 44.508,40.078 45.74,38.42C46.418,37.527 47.243,36.756 48.18,36.14C49.15,35.532 50.225,35.111 51.35,34.9C53.343,34.578 55.379,34.635 57.35,35.07C59.16,35.42 60.84,35.91 62.35,36.18L60,37.27C65.403,28.129 73.657,21.007 83.49,17C88.375,14.991 93.581,13.873 98.86,13.7C104.175,13.53 109.469,14.442 114.42,16.38L123.6,20L113.73,20.25C112.056,20.317 110.397,20.589 108.79,21.06C107.136,21.528 105.531,22.158 104,22.94C102.499,23.705 101.099,24.652 99.83,25.76C98.641,26.78 94.555,30.139 93.878,31.552C98.577,29.09 104.714,25.669 109.951,24.819C115.142,23.966 120.429,23.862 125.651,24.509Z" style="fill-rule:nonzero;"/>
        <path d="M46.54,40.85C50.607,35.804 56.652,36.033 62.936,36.896C73.281,21.105 86.686,11.871 107.329,18.146L91.796,32.224C92.831,31.538 99.24,28.836 100.362,28.28C100.686,28.12 104.508,26.599 105.229,26.461C111.275,25.308 116.713,23.934 125.676,25.649C138.46,32.59 143.259,46.177 146.483,67.09C146.268,99.789 134.842,123.315 110.362,136.161C81.904,151.914 55.49,148.718 30.708,130.37L23.74,123.477C65.09,141.877 97.045,142.395 115.601,117.412C131.393,97.697 126.004,65.251 106.778,60.885L94.094,60.609L85.822,74.64L75.35,75L59.627,113.826C50.505,115.001 45.404,111.35 43.634,103.701L53.92,103.701L57.697,84.323L53.92,74.64L53.92,65.546C47.826,64.716 45.038,68.847 43.359,74.64L32.825,74.64L30.708,79.359C27.544,76.669 23.366,76.259 17.26,80.187L11.925,82.117C8.61,79.893 9.542,75.121 13.579,68.485C15.818,64.841 23.144,61.588 34.942,58.679C41.477,53.118 45.152,47.147 46.54,40.85ZM17.26,69.88L23.74,67.09L23.59,69.26L17.26,69.88ZM46.54,53.88C48.136,51.984 49.531,49.926 50.7,47.74C51.76,45.497 52.694,43.197 53.5,40.85L53.92,50.85L46.54,53.88Z"/>
        <path d="M44.85,89.64C44.539,89.656 44.228,89.59 43.95,89.45C43.682,89.32 43.444,89.136 43.25,88.91C43.048,88.669 42.895,88.39 42.8,88.09C42.692,87.767 42.635,87.43 42.63,87.09C42.625,86.751 42.676,86.413 42.78,86.09C42.872,85.79 43.018,85.509 43.21,85.26C43.397,85.026 43.632,84.835 43.9,84.7C44.178,84.555 44.487,84.479 44.8,84.48C45.111,84.473 45.419,84.538 45.7,84.67C45.969,84.798 46.205,84.986 46.39,85.22C46.59,85.461 46.745,85.735 46.85,86.03C46.943,86.345 46.994,86.671 47,87C47,87.339 46.95,87.676 46.85,88C46.758,88.3 46.612,88.581 46.42,88.83C46.233,89.067 45.998,89.262 45.73,89.4C45.46,89.549 45.158,89.631 44.85,89.64ZM44.85,88.85C45.036,88.854 45.22,88.805 45.38,88.71C45.536,88.609 45.669,88.476 45.77,88.32C45.884,88.141 45.968,87.945 46.02,87.74C46.083,87.512 46.11,87.276 46.1,87.04C46.103,86.8 46.07,86.56 46,86.33C45.943,86.126 45.852,85.933 45.73,85.76C45.628,85.604 45.491,85.474 45.33,85.38C45.167,85.283 44.98,85.234 44.79,85.24C44.606,85.241 44.426,85.293 44.27,85.39C44.107,85.485 43.969,85.619 43.87,85.78C43.755,85.955 43.671,86.147 43.62,86.35C43.567,86.58 43.54,86.814 43.54,87.05C43.547,87.286 43.58,87.521 43.64,87.75C43.697,87.954 43.789,88.147 43.91,88.32C44.018,88.477 44.158,88.61 44.32,88.71C44.48,88.805 44.664,88.854 44.85,88.85Z" style="fill-rule:nonzero;stroke:black;stroke-width:0.45px;"/>
        <path d="M26.56,97.28C26.259,97.286 25.961,97.221 25.69,97.09C25.43,96.969 25.201,96.792 25.02,96.57C24.825,96.336 24.676,96.068 24.58,95.78C24.473,95.458 24.419,95.12 24.42,94.78C24.407,94.441 24.455,94.102 24.56,93.78C24.657,93.495 24.806,93.23 25,93C25.178,92.771 25.403,92.583 25.66,92.45C25.928,92.308 26.227,92.236 26.53,92.24C26.83,92.236 27.127,92.297 27.4,92.42C27.656,92.55 27.884,92.73 28.07,92.95C28.259,93.187 28.408,93.454 28.51,93.74C28.618,94.062 28.672,94.4 28.67,94.74C28.677,95.079 28.63,95.416 28.53,95.74C28.437,96.029 28.295,96.299 28.11,96.54C27.746,97.017 27.18,97.298 26.58,97.3L26.56,97.28ZM26.56,96.51C26.739,96.51 26.916,96.462 27.07,96.37C27.225,96.275 27.355,96.145 27.45,95.99C27.564,95.823 27.645,95.637 27.69,95.44C27.748,95.218 27.775,94.989 27.77,94.76C27.768,94.53 27.735,94.301 27.67,94.08C27.614,93.884 27.526,93.698 27.41,93.53C27.311,93.378 27.177,93.251 27.02,93.16C26.865,93.06 26.685,93.004 26.5,93C26.323,93.005 26.15,93.057 26,93.15C25.846,93.241 25.715,93.368 25.62,93.52C25.506,93.687 25.425,93.873 25.38,94.07C25.323,94.292 25.296,94.521 25.3,94.75C25.298,94.98 25.329,95.209 25.39,95.43C25.446,95.626 25.534,95.812 25.65,95.98C25.755,96.131 25.892,96.257 26.05,96.35C26.202,96.449 26.379,96.504 26.56,96.51Z" style="fill-rule:nonzero;stroke:black;stroke-width:0.45px;"/>
        <path d="M20.23,103.86C19.929,103.866 19.631,103.801 19.36,103.67C19.102,103.547 18.874,103.369 18.69,103.15C18.499,102.914 18.35,102.647 18.25,102.36C18.147,102.037 18.093,101.699 18.09,101.36C18.082,101.021 18.13,100.684 18.23,100.36C18.321,100.07 18.463,99.799 18.65,99.56C18.835,99.334 19.063,99.148 19.32,99.01C19.588,98.879 19.882,98.807 20.18,98.8C20.481,98.794 20.779,98.859 21.05,98.99C21.31,99.111 21.539,99.288 21.72,99.51C21.911,99.746 22.06,100.013 22.16,100.3C22.271,100.622 22.329,100.96 22.33,101.3C22.332,101.638 22.285,101.975 22.19,102.3C22.097,102.591 21.952,102.862 21.76,103.1C21.396,103.577 20.83,103.858 20.23,103.86ZM20.23,103.09C20.409,103.09 20.586,103.042 20.74,102.95C20.893,102.852 21.022,102.723 21.12,102.57C21.226,102.399 21.306,102.214 21.36,102.02C21.414,101.798 21.438,101.569 21.43,101.34C21.432,101.11 21.401,100.881 21.34,100.66C21.28,100.465 21.192,100.28 21.08,100.11C20.979,99.96 20.845,99.833 20.69,99.74C20.381,99.562 19.999,99.562 19.69,99.74C19.535,99.834 19.402,99.96 19.3,100.11C19.193,100.284 19.112,100.472 19.06,100.67C19.006,100.893 18.98,101.121 18.98,101.35C18.987,101.58 19.02,101.808 19.08,102.03C19.132,102.228 19.22,102.414 19.34,102.58C19.441,102.73 19.575,102.857 19.73,102.95C19.883,103.045 20.06,103.093 20.24,103.09L20.23,103.09Z" style="fill-rule:nonzero;stroke:black;stroke-width:0.45px;"/>
        <path d="M26.64,103.78C26.339,103.786 26.041,103.721 25.77,103.59C25.51,103.469 25.281,103.292 25.1,103.07C24.905,102.836 24.756,102.568 24.66,102.28C24.552,101.958 24.498,101.62 24.5,101.28C24.487,100.941 24.535,100.602 24.64,100.28C24.731,99.99 24.873,99.719 25.06,99.48C25.424,99.003 25.99,98.722 26.59,98.72C26.891,98.714 27.189,98.779 27.46,98.91C27.718,99.033 27.946,99.211 28.13,99.43C28.321,99.666 28.47,99.933 28.57,100.22C28.678,100.542 28.732,100.88 28.73,101.22C28.742,101.559 28.695,101.897 28.59,102.22C28.497,102.509 28.355,102.779 28.17,103.02C27.806,103.497 27.24,103.778 26.64,103.78ZM26.64,103.01C26.819,103.01 26.996,102.962 27.15,102.87C27.305,102.775 27.435,102.645 27.53,102.49C27.644,102.323 27.725,102.137 27.77,101.94C27.828,101.718 27.855,101.489 27.85,101.26C27.848,101.03 27.815,100.801 27.75,100.58C27.693,100.386 27.609,100.201 27.5,100.03C27.397,99.877 27.26,99.75 27.1,99.66C26.947,99.566 26.769,99.52 26.59,99.53C26.411,99.53 26.234,99.578 26.08,99.67C25.928,99.764 25.798,99.89 25.7,100.04C25.584,100.209 25.503,100.4 25.46,100.6C25.402,100.822 25.375,101.051 25.38,101.28C25.377,101.511 25.41,101.74 25.48,101.96C25.533,102.156 25.617,102.342 25.73,102.51C25.835,102.661 25.971,102.787 26.13,102.88C26.284,102.971 26.462,103.013 26.64,103L26.64,103.01Z" style="fill-rule:nonzero;stroke:black;stroke-width:0.45px;"/>
        <path d="M26.72,110.27C26.42,110.284 26.12,110.222 25.85,110.09C25.594,109.964 25.366,109.787 25.18,109.57C24.985,109.336 24.836,109.068 24.74,108.78C24.633,108.458 24.579,108.12 24.58,107.78C24.572,107.441 24.619,107.103 24.72,106.78C24.811,106.487 24.953,106.213 25.14,105.97C25.319,105.745 25.544,105.56 25.8,105.43C26.068,105.288 26.367,105.216 26.67,105.22C27.266,105.2 27.838,105.464 28.21,105.93C28.403,106.165 28.552,106.432 28.65,106.72C28.76,107.042 28.814,107.38 28.81,107.72C28.822,108.059 28.775,108.397 28.67,108.72C28.577,109.009 28.435,109.279 28.25,109.52C28.071,109.747 27.846,109.935 27.59,110.07C27.32,110.204 27.022,110.273 26.72,110.27ZM26.72,109.51C26.896,109.511 27.07,109.463 27.22,109.37C27.375,109.275 27.505,109.145 27.6,108.99C27.714,108.823 27.795,108.637 27.84,108.44C27.903,108.219 27.93,107.989 27.92,107.76C27.923,107.529 27.89,107.3 27.82,107.08C27.765,106.885 27.681,106.7 27.57,106.53C27.467,106.377 27.33,106.25 27.17,106.16C26.861,105.982 26.479,105.982 26.17,106.16C26.016,106.251 25.885,106.378 25.79,106.53C25.676,106.697 25.595,106.883 25.55,107.08C25.493,107.302 25.466,107.531 25.47,107.76C25.472,107.99 25.505,108.219 25.57,108.44C25.623,108.636 25.707,108.822 25.82,108.99C25.928,109.138 26.064,109.264 26.22,109.36C26.373,109.455 26.55,109.507 26.73,109.51L26.72,109.51Z" style="fill-rule:nonzero;stroke:black;stroke-width:0.45px;"/>
        <path d="M32.85,103.7C32.254,103.72 31.682,103.456 31.31,102.99C31.113,102.758 30.964,102.489 30.87,102.2C30.762,101.878 30.708,101.54 30.71,101.2C30.698,100.861 30.745,100.523 30.85,100.2C30.943,99.911 31.085,99.641 31.27,99.4C31.634,98.923 32.2,98.642 32.8,98.64C33.101,98.634 33.399,98.699 33.67,98.83C33.928,98.953 34.156,99.131 34.34,99.35C34.527,99.589 34.676,99.855 34.78,100.14C34.888,100.462 34.942,100.8 34.94,101.14C34.953,101.479 34.905,101.818 34.8,102.14C34.711,102.431 34.569,102.702 34.38,102.94C34.016,103.417 33.45,103.698 32.85,103.7ZM32.85,102.94C33.03,102.937 33.207,102.885 33.36,102.79C33.512,102.696 33.642,102.57 33.74,102.42C33.854,102.25 33.935,102.06 33.98,101.86C34.038,101.642 34.065,101.416 34.06,101.19C34.058,100.96 34.025,100.731 33.96,100.51C33.904,100.314 33.816,100.128 33.7,99.96C33.598,99.81 33.465,99.684 33.31,99.59C33.001,99.412 32.619,99.412 32.31,99.59C32.158,99.684 32.028,99.81 31.93,99.96C31.816,100.13 31.735,100.32 31.69,100.52C31.632,100.742 31.605,100.971 31.61,101.2C31.608,101.43 31.639,101.659 31.7,101.88C31.756,102.076 31.844,102.262 31.96,102.43C32.063,102.583 32.2,102.71 32.36,102.8C32.508,102.888 32.677,102.936 32.85,102.94Z" style="fill-rule:nonzero;stroke:black;stroke-width:0.45px;"/>
        <path d="M20.39,116.5C20.09,116.514 19.79,116.452 19.52,116.32C19.261,116.194 19.033,116.013 18.85,115.79C18.655,115.557 18.506,115.289 18.41,115C18.306,114.677 18.252,114.34 18.25,114C18.242,113.661 18.289,113.323 18.39,113C18.481,112.707 18.623,112.433 18.81,112.19C18.987,111.963 19.212,111.778 19.47,111.65C19.738,111.508 20.037,111.436 20.34,111.44C20.936,111.42 21.508,111.684 21.88,112.15C22.075,112.383 22.224,112.651 22.32,112.94C22.43,113.262 22.484,113.6 22.48,113.94C22.493,114.279 22.446,114.618 22.34,114.94C22.257,115.236 22.114,115.512 21.92,115.75C21.743,115.977 21.518,116.162 21.26,116.29C20.992,116.432 20.693,116.504 20.39,116.5ZM20.39,115.74C20.567,115.742 20.74,115.694 20.89,115.6C21.043,115.502 21.172,115.373 21.27,115.22C21.384,115.053 21.465,114.867 21.51,114.67C21.573,114.449 21.6,114.219 21.59,113.99C21.593,113.763 21.56,113.536 21.49,113.32C21.439,113.123 21.355,112.937 21.24,112.77C21.135,112.617 20.999,112.487 20.84,112.39C20.685,112.302 20.509,112.257 20.33,112.26C20.151,112.26 19.974,112.308 19.82,112.4C19.667,112.498 19.538,112.627 19.44,112.78C19.333,112.95 19.252,113.136 19.2,113.33C19.142,113.552 19.115,113.781 19.12,114.01C19.127,114.237 19.16,114.461 19.22,114.68C19.271,114.877 19.355,115.063 19.47,115.23C19.575,115.384 19.711,115.513 19.87,115.61C20.031,115.702 20.215,115.747 20.4,115.74L20.39,115.74Z" style="fill-rule:nonzero;stroke:black;stroke-width:0.45px;"/>
        <path d="M32.77,97.2C32.468,97.203 32.17,97.134 31.9,97C31.638,96.878 31.406,96.7 31.22,96.48C31.032,96.243 30.887,95.976 30.79,95.69C30.677,95.369 30.623,95.03 30.63,94.69C30.617,94.351 30.665,94.012 30.77,93.69C30.853,93.397 30.996,93.125 31.19,92.89C31.554,92.413 32.12,92.132 32.72,92.13C33.021,92.124 33.319,92.189 33.59,92.32C33.848,92.443 34.076,92.621 34.26,92.84C34.448,93.077 34.593,93.344 34.69,93.63C34.801,93.952 34.859,94.29 34.86,94.63C34.868,94.969 34.82,95.306 34.72,95.63C34.629,95.92 34.487,96.191 34.3,96.43C33.936,96.907 33.37,97.188 32.77,97.19L32.77,97.2ZM32.77,96.43C32.949,96.43 33.126,96.382 33.28,96.29C33.435,96.195 33.565,96.065 33.66,95.91C33.767,95.74 33.848,95.554 33.9,95.36C33.958,95.138 33.985,94.909 33.98,94.68C33.973,94.45 33.94,94.222 33.88,94C33.824,93.804 33.736,93.618 33.62,93.45C33.519,93.3 33.385,93.173 33.23,93.08C33.073,92.986 32.892,92.941 32.71,92.95C32.534,92.952 32.361,93 32.21,93.09C32.058,93.184 31.928,93.31 31.83,93.46C31.714,93.629 31.633,93.82 31.59,94.02C31.527,94.241 31.5,94.471 31.51,94.7C31.508,94.93 31.539,95.159 31.6,95.38C31.656,95.576 31.744,95.762 31.86,95.93C31.963,96.083 32.1,96.21 32.26,96.3C32.413,96.394 32.591,96.44 32.77,96.43Z" style="fill-rule:nonzero;stroke:black;stroke-width:0.45px;"/>
        <path d="M37.9,91L36.97,91.27L36.77,90.53L38.15,90.07L38.79,90.07L38.86,95.28L38,95.28L37.9,91Z" style="fill-rule:nonzero;stroke:black;stroke-width:0.45px;"/>
        <path d="M13.56,99.81L12.67,100.07L12.48,99.36L13.81,98.91L14.43,98.91L14.49,103.91L13.62,103.91L13.56,99.81Z" style="fill-rule:nonzero;stroke:black;stroke-width:0.45px;"/>
        <path d="M20.37,106.22L19.48,106.48L19.28,105.77L20.62,105.33L21.24,105.33L21.3,110.33L20.43,110.33L20.37,106.22Z" style="fill-rule:nonzero;stroke:black;stroke-width:0.45px;"/>
        <path d="M85.19,139.21C115.58,133.31 125.13,114.86 126.56,97.43C128.25,76.75 124.357,56.054 96.854,58.321C98.445,59.625 103.182,62.223 108.638,63.664C117.343,65.965 122.489,72.396 122.76,88.57C123.169,112.94 110.628,131.204 81.256,134.722C60.472,137.211 32.21,125.646 20.5,118.816C24.103,124.418 46.341,142.907 85.19,139.21Z" style="fill-rule:nonzero;"/>
        <circle cx="75.35" cy="74.64" r="71.75" style="fill:none;stroke:black;stroke-width:4.22px;stroke-linejoin:miter;stroke-miterlimit:10;"/>
    </g>
</svg>
