<svg xmlns="http://www.w3.org/2000/svg" viewBox="0 0 64 64" role="img" aria-label="Google">
  <path fill="#4285F4" d="M60.8 32.7c0-2.1-.2-4.1-.6-6H32v11.4h16.1c-.7 3.7-2.8 6.8-6 8.9v7.4h9.7c5.7-5.2 9-12.9 9-21.7z"/>
  <path fill="#34A853" d="M32 62c8.1 0 14.9-2.7 19.8-7.3l-9.7-7.4c-2.7 1.8-6.1 2.9-10.1 2.9-7.8 0-14.4-5.3-16.8-12.3h-10v7.6C10.1 55.3 20.2 62 32 62z"/>
  <path fill="#FBBC05" d="M15.2 37.8c-.6-1.8-.9-3.7-.9-5.8s.3-4 .9-5.8v-7.6h-10C3.1 22.6 2 27.2 2 32s1.1 9.4 3.2 13.4l10-7.6z"/>
  <path fill="#EA4335" d="M32 13.9c4.4 0 8.4 1.5 11.5 4.5l8.6-8.6C46.9 4.9 40.1 2 32 2 20.2 2 10.1 8.7 5.2 18.6l10 7.6C17.6 19.2 24.2 13.9 32 13.9z"/>
</svg>
