<?xml version="1.0" encoding="UTF-8" standalone="no"?>
<!DOCTYPE svg PUBLIC "-//W3C//DTD SVG 1.1//EN" "http://www.w3.org/Graphics/SVG/1.1/DTD/svg11.dtd">
<svg width="100%" height="100%" viewBox="0 0 146 148" version="1.1" xmlns="http://www.w3.org/2000/svg" xmlns:xlink="http://www.w3.org/1999/xlink" xml:space="preserve" xmlns:serif="http://www.serif.com/" style="fill-rule:evenodd;clip-rule:evenodd;stroke-linejoin:round;stroke-miterlimit:2;">
    <g transform="matrix(1,0,0,1,0,-0.423359)">
        <g transform="matrix(0.1,0,0,-0.1,0,148)">
            <path d="M651,1470C529,1451 468,1422 507,1402C517,1397 584,1390 655,1387C783,1382 865,1365 905,1336C931,1317 928,1261 899,1213C865,1157 756,1047 665,975C563,895 533,863 547,849C579,817 831,971 951,1097C1038,1188 1073,1253 1074,1321C1075,1361 1070,1374 1046,1399C1001,1446 923,1471 805,1475C750,1477 681,1475 651,1470Z" style="fill-rule:nonzero;"/>
            <path d="M1045,966C979,945 940,921 920,887C877,817 904,747 1047,569C1101,501 1155,432 1167,415C1212,349 1209,299 1158,281C1122,268 919,251 804,250C722,250 681,231 713,206C754,175 1050,150 1170,169C1258,183 1316,212 1347,259C1399,336 1373,397 1195,610C1092,733 1070,768 1070,812C1070,870 1102,882 1287,889C1447,896 1479,905 1449,935C1411,973 1134,994 1045,966Z" style="fill-rule:nonzero;"/>
            <path d="M345,766C207,743 149,718 175,692C178,688 259,682 353,679C543,672 590,662 632,620C666,585 667,560 635,492C578,369 339,180 240,180C214,180 210,184 210,206C210,220 248,305 295,396C342,486 380,567 380,575C380,599 346,592 319,563C225,460 0,76 0,19C0,-1 4,-2 45,3C154,18 371,113 515,208C628,283 729,391 778,489C801,535 820,586 820,602C820,639 797,683 764,709C694,764 495,791 345,766Z" style="fill-rule:nonzero;"/>
        </g>
    </g>
</svg>
